<svg xmlns="http://www.w3.org/2000/svg" width="49" height="26" viewBox="0 0 49 26" fill="none">
  <path d="M17.3416 0.269531V4.5096H11.2354V21.1632H6.83013V4.5096H0.75293V0.269531H17.3416Z" fill="white"/>
  <path d="M26.457 6.50527H30.6587V21.1628H26.457V19.429C26.0984 20.0311 25.5168 20.5216 24.7124 20.9006C23.9176 21.2697 23.0598 21.4542 22.139 21.4542C20.8887 21.4542 19.7401 21.1139 18.6933 20.4341C17.6465 19.7543 16.8227 18.8316 16.2217 17.666C15.6208 16.4906 15.3203 15.2082 15.3203 13.8194C15.3203 11.702 15.9794 9.90469 17.2976 8.42836C18.6254 6.95203 20.2393 6.21387 22.139 6.21387C23.0501 6.21387 23.9079 6.40315 24.7124 6.78208C25.5168 7.16064 26.0984 7.64643 26.457 8.23908V6.50527ZM23.0695 17.4618C23.777 17.4618 24.4361 17.2918 25.0467 16.9519C25.6671 16.612 26.1371 16.1747 26.457 15.6408V12.0565C26.1371 11.5028 25.6671 11.051 25.0467 10.7012C24.4361 10.3518 23.777 10.1768 23.0695 10.1768C22.0421 10.1768 21.1794 10.5265 20.4816 11.226C19.7837 11.9157 19.4348 12.78 19.4348 13.8194C19.4348 14.8589 19.7837 15.7279 20.4816 16.4275C21.1794 17.1171 22.0421 17.4618 23.0695 17.4618Z" fill="white"/>
  <path d="M42.1155 6.21387C43.3656 6.21387 44.5094 6.55377 45.5466 7.23358C46.5932 7.90391 47.4124 8.82188 48.0034 9.98748C48.6046 11.1531 48.9049 12.4303 48.9049 13.8194C48.9049 15.2082 48.6046 16.4906 48.0034 17.666C47.4124 18.8316 46.5932 19.7543 45.5466 20.4341C44.5094 21.1139 43.3656 21.4542 42.1155 21.4542C41.1945 21.4542 40.332 21.2697 39.5273 20.9006C38.7329 20.5216 38.1561 20.0311 37.7972 19.429V25.9999H33.5957V6.50527H37.7972V8.23908C38.1561 7.63695 38.7329 7.15116 39.5273 6.78208C40.332 6.40315 41.1945 6.21387 42.1155 6.21387ZM41.1995 17.4618C42.2171 17.4618 43.0701 17.1171 43.7583 16.4275C44.4465 15.7279 44.7904 14.8589 44.7904 13.8194C44.7904 12.7899 44.4417 11.9252 43.7437 11.226C43.0555 10.5265 42.2076 10.1768 41.1995 10.1768C40.4921 10.1768 39.8279 10.3518 39.2078 10.7012C38.5873 11.0415 38.1171 11.4831 37.7972 12.0273V15.6116C38.1171 16.1652 38.5826 16.612 39.1932 16.9519C39.8039 17.2918 40.4724 17.4618 41.1995 17.4618Z" fill="white"/>
</svg>